HIERARCHY
ROOT joint_Root
{
	OFFSET 0.0 0.0 0.0
	CHANNELS 6 Xposition Yposition Zposition Zrotation Xrotation Yrotation 
	JOINT Hips
	{
		OFFSET -17.1583 93.1646 452.98
		CHANNELS 6 Xposition Yposition Zposition Zrotation Xrotation Yrotation 
		JOINT Spine
		{
			OFFSET 15.7357 0.0 0.0
			CHANNELS 6 Xposition Yposition Zposition Zrotation Xrotation Yrotation 
			JOINT Chest
			{
				OFFSET 8.98455 -0.406207 0.0
				CHANNELS 6 Xposition Yposition Zposition Zrotation Xrotation Yrotation 
				JOINT Neck
				{
					OFFSET 16.3773 0.0 0.0
					CHANNELS 6 Xposition Yposition Zposition Zrotation Xrotation Yrotation 
					JOINT Head
					{
						OFFSET 6.45672 0.0 0.0
						CHANNELS 6 Xposition Yposition Zposition Zrotation Xrotation Yrotation 
						End Site
						{
							OFFSET 0.0 0.0 0.0
						}
					}
				}
				JOINT Shoulder_L
				{
					OFFSET 12.9942 -0.242716 4.98039
					CHANNELS 6 Xposition Yposition Zposition Zrotation Xrotation Yrotation 
					JOINT UpperArm_L
					{
						OFFSET 5.34809 0.0 0.0
						CHANNELS 6 Xposition Yposition Zposition Zrotation Xrotation Yrotation 
						JOINT LowerArm_L
						{
							OFFSET 24.3286 1.87007e-05 0.0
							CHANNELS 6 Xposition Yposition Zposition Zrotation Xrotation Yrotation 
							JOINT Hand_L
							{
								OFFSET 22.2916 0.0 0.0
								CHANNELS 6 Xposition Yposition Zposition Zrotation Xrotation Yrotation 
								End Site
								{
									OFFSET 0.0 0.0 0.0
								}
							}
						}
					}
				}
				JOINT Shoulder_R
				{
					OFFSET 12.9945 -0.242716 -4.98039
					CHANNELS 6 Xposition Yposition Zposition Zrotation Xrotation Yrotation 
					JOINT UpperArm_R
					{
						OFFSET -5.34813 0.0 0.0
						CHANNELS 6 Xposition Yposition Zposition Zrotation Xrotation Yrotation 
						JOINT LowerArm_R
						{
							OFFSET -24.3289 0.000322201 0.0
							CHANNELS 6 Xposition Yposition Zposition Zrotation Xrotation Yrotation 
							JOINT Hand_R
							{
								OFFSET -22.2915 -0.000108084 0.0
								CHANNELS 6 Xposition Yposition Zposition Zrotation Xrotation Yrotation 
								End Site
								{
									OFFSET 0.0 0.0 0.0
								}
							}
						}
					}
				}
			}
		}
		JOINT UpperLeg_L
		{
			OFFSET -2.19248 -6.46944 0.0
			CHANNELS 6 Xposition Yposition Zposition Zrotation Xrotation Yrotation 
			JOINT LowerLeg_L
			{
				OFFSET 39.0811 0.0 -1.23785e-05
				CHANNELS 6 Xposition Yposition Zposition Zrotation Xrotation Yrotation 
				JOINT Foot_L
				{
					OFFSET 40.9854 0.0 -1.26872e-05
					CHANNELS 6 Xposition Yposition Zposition Zrotation Xrotation Yrotation 
					JOINT Toes_L
					{
						OFFSET 11.7543 0.0 0.0
						CHANNELS 6 Xposition Yposition Zposition Zrotation Xrotation Yrotation 
						End Site
						{
							OFFSET 0.0 0.0 0.0
						}
					}
				}
			}
		}
		JOINT UpperLeg_R
		{
			OFFSET -2.19251 6.46944 0.0
			CHANNELS 6 Xposition Yposition Zposition Zrotation Xrotation Yrotation 
			JOINT LowerLeg_R
			{
				OFFSET -39.0811 -0.00228153 -0.0401928
				CHANNELS 6 Xposition Yposition Zposition Zrotation Xrotation Yrotation 
				JOINT Foot_R
				{
					OFFSET -40.9854 0.0 0.0
					CHANNELS 6 Xposition Yposition Zposition Zrotation Xrotation Yrotation 
					JOINT Toes_R
					{
						OFFSET -11.7543 0.0 0.0
						CHANNELS 6 Xposition Yposition Zposition Zrotation Xrotation Yrotation 
						End Site
						{
							OFFSET 0.0 0.0 0.0
						}
					}
				}
			}
		}
	}
}
MOTION
Frames:	5
Frame Time:	0.0333333
0.000000 0.000000 0.000000 0.000000 0.000000 -0.000000 -2.235620 92.960400 0.411802 87.384200 2.127650 2.928380 15.735700 0.000005 -0.000001 85.723300 85.711600 -84.349400 8.984550 -0.406207 -0.000000 0.797051 -0.722869 2.750660 16.377300 -0.000001 -0.000001 3.893310 2.179310 -0.843522 6.456720 -0.000001 -0.000000 -11.353000 1.364400 0.700891 12.994200 -0.242716 4.980390 -92.785800 8.193030 -71.147400 5.348090 -0.000007 -0.000001 -72.279100 30.368700 -6.419500 24.328600 0.000019 0.000005 9.365710 28.065200 -19.319000 22.291600 -0.000001 0.000005 -2.982760 5.047270 6.295260 12.994500 -0.242716 -4.980390 88.070600 5.493150 -70.612100 -5.348130 -0.000001 -0.000004 -70.434300 29.166200 -6.313930 -24.328900 0.000322 -0.000009 -0.347240 -1.158150 -16.645000 -22.291500 -0.000108 -0.000004 -4.964690 5.172560 3.398390 -2.192480 -6.469440 -0.000000 -171.450000 -8.625770 0.211927 39.081100 -0.000007 -0.000012 0.000130 -0.000427 17.048900 40.985400 -0.000006 -0.000013 -1.236510 14.698600 -69.000400 11.754300 -0.000000 0.000003 -0.000609 0.177320 -9.384240 -2.192510 6.469440 -0.000001 178.544000 10.172300 -176.388000 -39.081100 -0.002282 -0.040193 0.012555 -0.041653 12.481500 -40.985400 0.000008 0.000006 -4.454940 7.451320 -67.938600 -11.754300 -0.000006 -0.000006 -0.010871 0.277705 -5.289140
0.000000 0.000000 0.000000 0.000000 0.000000 -0.000000 -2.231050 92.993600 0.398755 87.391400 2.307450 2.496440 15.735700 0.000005 -0.000001 84.809400 85.693400 -83.416400 8.984550 -0.406207 -0.000000 0.823935 -0.863295 2.790200 16.377300 -0.000001 -0.000001 3.768400 2.171540 -0.411021 6.456720 -0.000001 -0.000000 -13.357700 1.564240 0.911055 12.994200 -0.242716 4.980390 -92.864100 8.152430 -70.566900 5.348090 -0.000007 -0.000001 -71.449300 28.123600 -8.247770 24.328600 0.000019 0.000005 8.370360 27.665400 -17.583800 22.291600 -0.000001 0.000005 -5.251410 5.139440 4.142160 12.994500 -0.242716 -4.980390 88.135300 5.058260 -69.732700 -5.348130 -0.000001 -0.000004 -70.753800 25.085500 -7.123970 -24.328900 0.000322 -0.000009 -1.152300 -4.107650 -15.689900 -22.291500 -0.000108 -0.000004 -6.984650 5.192970 2.883860 -2.192480 -6.469440 -0.000000 -171.550000 -8.469660 -0.140420 39.081100 -0.000007 -0.000012 0.002703 -0.008954 16.801100 40.985400 -0.000006 -0.000013 -1.272700 14.659000 -68.954000 11.754300 -0.000000 0.000003 -0.000748 0.179391 -9.300070 -2.192510 6.469440 -0.000001 178.535000 10.449400 -176.670000 -39.081100 -0.002282 -0.040193 0.009078 -0.026629 12.171200 -40.985400 0.000008 0.000006 -4.898710 7.600960 -67.653900 -11.754300 -0.000006 -0.000006 -0.011012 0.278714 -5.247850
0.000000 0.000000 0.000000 0.000000 0.000000 -0.000000 -2.241790 93.041000 0.403791 87.431200 2.731990 2.096820 15.735700 0.000005 -0.000001 83.674400 85.747800 -82.288300 8.984550 -0.406207 -0.000000 0.700622 -1.022090 2.776390 16.377300 -0.000001 -0.000001 3.744130 2.018780 -0.067847 6.456720 -0.000001 -0.000000 -15.742000 1.333780 1.574550 12.994200 -0.242716 4.980390 -92.795600 7.570460 -69.662300 5.348090 -0.000007 -0.000001 -70.624500 22.052000 -11.182600 24.328600 0.000019 0.000005 6.738070 29.976400 -13.303400 22.291600 -0.000001 0.000005 -11.179000 5.271410 0.837500 12.994500 -0.242716 -4.980390 88.245100 4.419870 -68.317200 -5.348130 -0.000001 -0.000004 -70.896800 17.377100 -8.734600 -24.328900 0.000322 -0.000009 -1.855100 -9.279070 -11.375400 -22.291500 -0.000108 -0.000004 -11.898700 5.191750 2.945100 -2.192480 -6.469440 -0.000000 -171.642000 -8.409400 -0.426033 39.081100 -0.000007 -0.000012 0.003884 -0.013188 16.413100 40.985400 -0.000006 -0.000013 -1.297680 14.901500 -68.881400 11.754300 -0.000000 0.000003 -0.001010 0.183175 -9.146300 -2.192510 6.469440 -0.000001 178.435000 11.038800 -176.793000 -39.081100 -0.002282 -0.040193 0.003896 -0.002713 11.670600 -40.985400 0.000008 0.000006 -5.570260 7.883060 -67.183600 -11.754300 -0.000006 -0.000006 -0.010644 0.276059 -5.356490
0.000000 0.000000 0.000000 0.000000 0.000000 -0.000000 -2.246770 93.115800 0.398216 87.433500 3.229340 1.351470 15.735700 0.000005 -0.000001 82.186400 86.152200 -80.779900 8.984550 -0.406207 -0.000000 -0.126181 -1.142810 2.810080 16.377300 -0.000001 -0.000001 3.567650 1.751670 0.399637 6.456720 -0.000001 -0.000000 -16.632100 1.127060 1.996350 12.994200 -0.242716 4.980390 -92.378300 6.274680 -69.192300 5.348090 -0.000007 -0.000001 -69.762800 11.573400 -13.776900 24.328600 0.000019 0.000005 3.707890 29.853900 -7.419670 22.291600 -0.000001 0.000005 -20.206100 5.250820 1.448160 12.994500 -0.242716 -4.980390 88.791100 2.904330 -67.385100 -5.348130 -0.000001 -0.000004 -71.054000 4.240590 -10.083000 -24.328900 0.000322 -0.000009 -1.149070 -14.199100 -4.682200 -22.291500 -0.000108 -0.000004 -17.187700 5.063140 5.985320 -2.192480 -6.469440 -0.000000 -171.665000 -8.843250 -0.957357 39.081100 -0.000007 -0.000012 0.001444 -0.005107 15.791400 40.985400 -0.000006 -0.000013 -1.292800 15.725100 -68.703200 11.754300 -0.000000 0.000003 -0.001127 0.184821 -9.079420 -2.192510 6.469440 -0.000001 178.425000 11.902100 -177.041000 -39.081100 -0.002282 -0.040193 -0.000987 0.022904 10.692200 -40.985400 0.000008 0.000006 -6.319950 8.278250 -66.374800 -11.754300 -0.000006 -0.000006 -0.010494 0.274961 -5.401420
0.000000 0.000000 0.000000 0.000000 0.000000 -0.000000 -2.258530 93.263700 0.387033 87.436100 3.896610 -0.157789 15.735700 0.000005 -0.000001 78.171800 86.900900 -76.720400 8.984550 -0.406207 -0.000000 -1.680250 -1.389810 2.881680 16.377300 -0.000001 -0.000001 2.446120 1.500020 0.597202 6.456720 -0.000001 -0.000000 -15.906900 0.999317 2.222640 12.994200 -0.242716 4.980390 -91.900900 4.906150 -68.790200 5.348090 -0.000007 -0.000001 -67.617200 -2.928550 -16.822500 24.328600 0.000019 0.000005 0.578495 33.280300 -1.057440 22.291600 -0.000001 0.000005 -27.154800 5.189960 3.001060 12.994500 -0.242716 -4.980390 89.444800 1.285310 -66.629700 -5.348130 -0.000001 -0.000004 -68.837300 -10.570700 -11.915100 -24.328900 0.000322 -0.000009 -0.004060 -14.218700 -0.000080 -22.291500 -0.000108 -0.000004 -20.253400 4.905250 9.272500 -2.192480 -6.469440 -0.000000 -171.817000 -9.414270 -1.926740 39.081100 -0.000007 -0.000012 0.000238 -0.000923 14.462600 40.985400 -0.000006 -0.000013 -1.388220 16.707600 -68.398900 11.754300 -0.000000 0.000003 -0.001409 0.188679 -8.922580 -2.192510 6.469440 -0.000001 178.549000 12.827200 -177.439000 -39.081100 -0.002282 -0.040193 -0.003362 0.045226 8.431330 -40.985400 0.000008 0.000006 -7.921220 8.579610 -64.700900 -11.754300 -0.000006 -0.000006 -0.010681 0.276327 -5.345550
